<svg width="15" height="13" viewBox="0 0 15 13" fill="none" xmlns="http://www.w3.org/2000/svg">
<path d="M11.0894 5.39093C10.0796 5.55596 9.83303 5.73277 9.19157 6.64928C8.71122 7.35949 8.2515 8.05301 7.72694 8.85753C8.6621 9.80939 10.0118 11.2681 10.6827 12.3752L10.6081 12.4882C9.24757 12.4194 8.25444 12.0432 8.04324 11.8104C7.80945 11.5766 7.2348 10.9106 6.63165 10.2907C5.47939 11.8359 4.4234 12.4577 3.3124 12.4577C1.18077 12.4577 -0.00587206 10.8222 2.1851e-05 9.41647C2.1851e-05 7.98228 0.942065 7.29368 2.55601 6.27108C1.7623 5.54122 1.25739 4.69839 1.25739 3.73867C1.25739 2.15419 2.5403 0.977371 4.04423 0.977371C5.54816 0.977371 6.70041 1.98228 6.69452 3.31922C6.68863 3.98719 6.37821 4.44888 5.98922 4.76519C5.66505 5.03336 5.27114 5.27894 4.48627 5.71214C5.03833 6.21313 6.20041 7.32708 7.44796 8.5481C7.79865 7.98032 8.16309 7.4204 8.47645 6.71411C8.85759 5.84279 8.7456 5.6149 7.52163 5.38798V5.14436H11.0894V5.39093ZM4.06485 11.2534C4.97153 11.2534 5.75641 10.7171 6.34874 10.0019C5.10513 8.67285 4.19845 7.77796 2.80159 6.53435C2.05405 7.16008 1.68372 7.90959 1.68372 8.67383C1.68372 10.5078 2.87428 11.2534 4.06485 11.2534ZM3.90768 1.3369C3.24167 1.3369 2.71515 1.94103 2.71515 3.03631C2.71515 3.9204 3.1788 4.59132 4.23185 5.47049C4.78686 5.01666 5.23087 4.42924 5.23676 3.26715C5.23676 2.24751 4.76721 1.3369 3.90768 1.3369Z" fill="#1A1A2E"/>
<path d="M12.0502 3.44106C12.9264 3.00098 13.3419 2.57466 13.3419 2.04028C13.3419 1.50589 12.8576 1.29568 12.28 1.19253C12.1219 1.16405 12.0099 0.982318 12.0099 0.718075C12.0099 0.354617 12.283 0 12.8635 0C13.5001 0 14.1287 0.546169 14.1287 1.52063C14.1287 2.57564 13.171 3.36739 12.1464 3.69155L12.0502 3.44106Z" fill="#1A1A2E"/>
</svg>
