<svg width="24" height="24" viewBox="0 0 24 24" fill="none" xmlns="http://www.w3.org/2000/svg">
<rect width="24" height="23.9982" rx="4" fill="#F1C47F"/>
<path d="M16.68 11.191C15.6702 11.356 15.4237 11.5328 14.7822 12.4493C14.3019 13.1595 13.8421 13.8531 13.3176 14.6576C14.2527 15.6094 15.6024 17.0682 16.2734 18.1753L16.1987 18.2882C14.8382 18.2195 13.8451 17.8432 13.6339 17.6104C13.4001 17.3766 12.8254 16.7106 12.2223 16.0908C11.07 17.636 10.014 18.2578 8.90304 18.2578C6.7714 18.2578 5.58477 16.6222 5.59066 15.2165C5.59066 13.7823 6.5327 13.0937 8.14665 12.0711C7.35294 11.3413 6.84803 10.4984 6.84803 9.53872C6.84803 7.95424 8.13093 6.77742 9.63486 6.77742C11.1388 6.77742 12.2911 7.78233 12.2852 9.11927C12.2793 9.78724 11.9689 10.2489 11.5799 10.5652C11.2557 10.8334 10.8618 11.079 10.0769 11.5122C10.629 12.0132 11.7911 13.1271 13.0386 14.3481C13.3893 13.7804 13.7537 13.2204 14.0671 12.5142C14.4482 11.6428 14.3362 11.4149 13.1123 11.188V10.9444H16.68V11.191ZM9.65549 17.0535C10.5622 17.0535 11.347 16.5171 11.9394 15.802C10.6958 14.4729 9.78909 13.578 8.39223 12.3344C7.64469 12.9601 7.27435 13.7096 7.27435 14.4739C7.27435 16.3079 8.46492 17.0535 9.65549 17.0535ZM9.49832 7.13695C8.83231 7.13695 8.30579 7.74107 8.30579 8.83636C8.30579 9.72045 8.76944 10.3914 9.82249 11.2705C10.3775 10.8167 10.8215 10.2293 10.8274 9.0672C10.8274 8.04756 10.3578 7.13695 9.49832 7.13695Z" fill="#1A1A2E"/>
<path d="M17.6408 9.24111C18.517 8.80103 18.9325 8.37471 18.9325 7.84032C18.9325 7.30594 18.4483 7.09573 17.8707 6.99258C17.7125 6.9641 17.6005 6.78237 17.6005 6.51812C17.6005 6.15467 17.8736 5.80005 18.4542 5.80005C19.0907 5.80005 19.7194 6.34622 19.7194 7.32068C19.7194 8.37569 18.7616 9.16744 17.7371 9.4916L17.6408 9.24111Z" fill="#1A1A2E"/>
</svg>
